<svg xmlns="http://www.w3.org/2000/svg" xmlns:xlink="http://www.w3.org/1999/xlink" width="400" zoomAndPan="magnify" viewBox="0 0 300 149.999998" height="200" preserveAspectRatio="xMidYMid meet" version="1.0"><defs><clipPath id="e6bba61ff3"><path d="M 16 27.46875 L 209.035156 27.46875 L 209.035156 116 L 16 116 Z M 16 27.46875 " clip-rule="nonzero"/></clipPath><clipPath id="ab0609e00e"><path d="M 44.773438 57.226562 C 63.675781 42.523438 66.898438 40.5 70.726562 38.550781 C 74.773438 36.449219 78.675781 34.726562 83.550781 33.148438 C 89.625 31.199219 98.175781 29.101562 104.398438 28.273438 C 109.273438 27.675781 114.226562 27.675781 117.75 27.898438 C 120.148438 28.050781 121.574219 28.351562 123.675781 28.875 C 126.300781 29.550781 129.824219 30.449219 132.300781 31.800781 C 134.398438 33 136.5 34.648438 137.699219 36.148438 C 138.601562 37.273438 139.050781 38.476562 139.351562 39.75 C 139.648438 41.175781 139.648438 42.898438 139.351562 44.398438 C 139.050781 45.898438 138.675781 47.023438 137.699219 48.824219 C 135.75 52.351562 130.648438 58.800781 126.675781 63.148438 C 122.851562 67.273438 118.800781 70.726562 114.449219 74.324219 C 109.949219 78.074219 105.148438 81.675781 100.273438 85.050781 C 95.324219 88.425781 90.074219 91.648438 84.976562 94.425781 C 80.101562 97.125 75.601562 99.300781 70.273438 101.625 C 64.351562 104.25 57.601562 106.875 50.925781 109.050781 C 44.101562 111.300781 34.875 113.773438 29.699219 114.824219 C 26.773438 115.425781 24.75 115.726562 22.648438 115.800781 C 20.925781 115.875 19.125 115.875 18 115.425781 C 17.25 115.125 16.648438 114.75 16.351562 114.226562 C 16.125 113.773438 16.050781 113.101562 16.199219 112.574219 C 16.425781 111.824219 17.175781 111.226562 18.148438 110.476562 C 20.101562 108.976562 23.851562 107.324219 28.125 105.523438 C 35.398438 102.449219 48 98.101562 58.5 95.101562 C 69.375 92.023438 83.773438 88.875 92.324219 87.449219 C 97.425781 86.550781 100.875 86.175781 104.773438 86.023438 C 108.148438 85.875 111.976562 85.648438 114.300781 86.25 C 115.726562 86.625 117 87.148438 117.523438 87.898438 C 117.976562 88.574219 117.898438 89.625 117.75 90.300781 C 117.601562 90.898438 116.476562 91.648438 116.699219 91.949219 C 117.601562 93.148438 141.601562 84.148438 146.25 84 C 147.675781 84 147.75 84.523438 149.023438 84.601562 C 151.574219 84.75 155.699219 84.148438 160.574219 83.476562 C 168.976562 82.273438 192.375 76.425781 195 77.25 C 195.449219 77.398438 195.523438 77.625 195.601562 77.851562 C 195.675781 78.148438 195.523438 78.523438 195.074219 78.976562 C 193.199219 80.773438 177.601562 87.375 175.199219 87 C 174.601562 86.925781 174.148438 86.398438 174.226562 86.175781 C 174.300781 85.875 176.023438 86.023438 177.824219 85.949219 C 182.925781 85.800781 205.050781 84.449219 207.75 86.175781 C 208.351562 86.550781 208.574219 87.523438 208.425781 87.675781 C 208.273438 87.824219 206.851562 87.449219 206.851562 87.226562 C 206.851562 87 207.976562 86.175781 208.199219 86.324219 C 208.425781 86.476562 208.273438 87.824219 207.976562 87.976562 C 207.75 88.125 206.925781 87.675781 206.851562 87.375 C 206.773438 87.074219 207.523438 86.175781 207.824219 86.175781 C 208.125 86.175781 208.648438 86.925781 208.574219 87.226562 C 208.574219 87.523438 207.601562 87.824219 207.675781 87.976562 C 207.75 88.199219 209.023438 88.199219 209.023438 88.273438 C 208.949219 88.648438 176.476562 89.25 173.699219 87.601562 C 173.175781 87.300781 173.023438 86.925781 173.101562 86.550781 C 173.175781 86.101562 173.699219 85.875 174.523438 85.351562 C 177.300781 83.699219 192.074219 77.101562 194.550781 77.25 C 195.148438 77.324219 195.523438 77.550781 195.601562 77.851562 C 195.675781 78.148438 195.449219 78.675781 194.851562 79.050781 C 191.925781 81.074219 169.273438 84.074219 160.800781 85.273438 C 155.773438 85.949219 151.574219 86.550781 148.800781 86.476562 C 147.300781 86.476562 147 85.949219 145.273438 86.023438 C 140.25 86.324219 120.375 94.199219 116.476562 93.449219 C 115.351562 93.226562 114.675781 92.625 114.523438 92.023438 C 114.375 91.425781 115.800781 90.375 115.949219 89.699219 C 116.023438 89.25 115.949219 88.875 115.726562 88.574219 C 115.425781 88.199219 114.898438 88.125 114.074219 87.976562 C 112.273438 87.601562 108.226562 87.523438 104.925781 87.675781 C 101.101562 87.824219 97.425781 88.351562 92.625 89.101562 C 85.726562 90.226562 75.898438 92.25 67.648438 94.351562 C 59.324219 96.449219 50.625 99.148438 42.898438 101.851562 C 35.925781 104.25 27.226562 107.625 23.25 109.574219 C 21.449219 110.476562 20.25 111 19.425781 111.824219 C 18.824219 112.425781 18.226562 113.398438 18.375 113.773438 C 18.523438 114.148438 19.351562 114.074219 20.175781 114.148438 C 22.050781 114.226562 25.726562 113.851562 29.398438 113.175781 C 35.023438 112.125 43.648438 109.726562 50.398438 107.476562 C 57 105.300781 63.601562 102.675781 69.523438 100.125 C 74.773438 97.875 79.273438 95.699219 84.148438 93 C 89.25 90.226562 94.425781 86.925781 99.300781 83.625 C 104.175781 80.324219 108.976562 76.726562 113.398438 73.050781 C 117.675781 69.523438 121.648438 66.074219 125.398438 62.023438 C 129.300781 57.824219 134.25 51.449219 136.125 48.148438 C 137.023438 46.574219 137.324219 45.601562 137.625 44.324219 C 137.925781 43.050781 138 41.625 137.773438 40.425781 C 137.550781 39.300781 137.25 38.324219 136.5 37.273438 C 135.449219 35.925781 133.800781 34.425781 131.625 33.300781 C 128.324219 31.574219 122.25 30.148438 117.675781 29.625 C 113.324219 29.101562 109.050781 29.398438 104.625 29.925781 C 100.050781 30.449219 95.324219 31.574219 90.824219 32.773438 C 86.324219 33.976562 82.199219 35.25 77.625 37.273438 C 72.300781 39.675781 66.148438 43.050781 60.898438 46.648438 C 55.574219 50.25 48.226562 58.351562 45.898438 58.875 C 45.300781 59.023438 44.851562 58.875 44.625 58.574219 C 44.398438 58.273438 44.773438 57.226562 44.773438 57.226562 " clip-rule="nonzero"/></clipPath><clipPath id="5392586db2"><path d="M 207.878906 46.257812 L 292.746094 46.257812 L 292.746094 105 L 207.878906 105 Z M 207.878906 46.257812 " clip-rule="nonzero"/></clipPath><clipPath id="351e664dd9"><path d="M 251.773438 47.476562 C 250.273438 56.324219 248.925781 60.675781 247.125 64.800781 C 244.949219 69.824219 241.199219 76.425781 238.199219 80.851562 C 235.875 84.226562 233.851562 86.476562 231.148438 89.324219 C 228.074219 92.550781 223.648438 96.523438 220.5 99 C 218.25 100.726562 216.523438 102.074219 214.425781 103.050781 C 212.476562 103.949219 209.175781 105.148438 208.351562 104.699219 C 207.976562 104.476562 207.898438 103.875 208.050781 103.351562 C 208.351562 102.375 210.300781 100.949219 211.800781 99.675781 C 213.824219 97.949219 216.226562 96.300781 219.523438 94.273438 C 225 90.976562 235.800781 85.351562 242.101562 82.648438 C 246.449219 80.851562 249.601562 79.800781 253.351562 78.824219 C 256.875 77.851562 260.476562 77.175781 263.925781 76.726562 C 267.226562 76.273438 270.449219 76.125 273.601562 76.199219 C 276.523438 76.199219 279.148438 76.425781 282.074219 76.875 C 285.226562 77.324219 290.550781 78.074219 291.898438 78.976562 C 292.351562 79.273438 292.648438 79.726562 292.574219 80.023438 C 292.5 80.324219 291.976562 80.699219 291.675781 80.699219 C 291.375 80.699219 290.773438 80.023438 290.773438 79.726562 C 290.773438 79.425781 291.523438 78.824219 291.824219 78.898438 C 292.125 78.976562 292.574219 79.949219 292.5 80.25 C 292.425781 80.476562 292.050781 80.625 291.523438 80.699219 C 290.023438 80.851562 285 78.976562 281.925781 78.523438 C 279.074219 78.074219 276.601562 77.925781 273.75 77.925781 C 270.675781 77.925781 267.449219 78.074219 264.226562 78.449219 C 260.851562 78.898438 257.324219 79.574219 253.875 80.476562 C 250.199219 81.449219 246.523438 82.648438 242.851562 84.148438 C 238.875 85.726562 234.75 87.824219 230.925781 89.773438 C 227.324219 91.648438 224.023438 93.375 220.5 95.699219 C 216.523438 98.25 209.324219 105.226562 208.351562 104.699219 C 208.050781 104.550781 207.976562 103.5 208.351562 103.050781 C 208.949219 102.226562 211.648438 102.449219 213.523438 101.550781 C 216.300781 100.199219 219.75 97.5 222.824219 94.875 C 226.351562 91.875 230.25 88.199219 233.476562 84.148438 C 236.925781 79.875 240.375 74.25 242.851562 69.675781 C 244.875 65.851562 246.375 62.476562 247.574219 58.648438 C 248.773438 54.824219 248.773438 48 249.976562 46.800781 C 250.351562 46.425781 250.949219 46.351562 251.25 46.5 C 251.550781 46.648438 251.773438 47.476562 251.773438 47.476562 " clip-rule="nonzero"/></clipPath><clipPath id="0e98931e3a"><path d="M 127.515625 103.015625 L 166.5625 103.015625 L 166.5625 110.800781 L 127.515625 110.800781 Z M 127.515625 103.015625 " clip-rule="nonzero"/></clipPath><clipPath id="0942a1d662"><path d="M 128.625 107.925781 C 150.449219 104.101562 162.898438 103.050781 165.375 103.949219 C 165.976562 104.175781 166.425781 104.625 166.351562 104.851562 C 166.273438 105.148438 164.925781 105.675781 164.773438 105.523438 C 164.625 105.375 164.925781 104.023438 165.226562 103.949219 C 165.449219 103.875 166.273438 104.476562 166.273438 104.773438 C 166.273438 105.074219 165.976562 105.449219 165.449219 105.75 C 163.199219 106.875 150.824219 106.050781 144.375 106.949219 C 138.824219 107.699219 131.476562 110.773438 129.148438 110.25 C 128.398438 110.101562 127.800781 109.574219 127.726562 109.199219 C 127.648438 108.824219 128.625 107.925781 128.625 107.925781 " clip-rule="nonzero"/></clipPath><clipPath id="fabdcc45ce"><path d="M 33.660156 63.046875 L 37.515625 63.046875 L 37.515625 66.410156 L 33.660156 66.410156 Z M 33.660156 63.046875 " clip-rule="nonzero"/></clipPath><clipPath id="d1a470b89f"><path d="M 34.726562 65.925781 C 33.675781 64.648438 33.824219 64.050781 34.050781 63.75 C 34.273438 63.449219 34.875 63.148438 35.25 63.226562 C 35.625 63.300781 36.148438 63.601562 36.300781 63.976562 C 36.449219 64.273438 36.523438 64.949219 36.375 65.25 C 36.226562 65.625 35.699219 65.925781 35.324219 66 C 34.949219 66.074219 34.425781 65.851562 34.125 65.550781 C 33.824219 65.25 33.675781 64.648438 33.75 64.273438 C 33.824219 63.898438 34.273438 63.449219 34.648438 63.300781 C 35.101562 63.074219 35.851562 63.074219 36.300781 63.300781 C 36.824219 63.601562 37.5 64.574219 37.425781 65.101562 C 37.351562 65.550781 36.226562 66.375 36.226562 66.375 " clip-rule="nonzero"/></clipPath></defs><g clip-path="url(#e6bba61ff3)"><g clip-path="url(#ab0609e00e)"><path fill="#000000" d="M 13.199219 24.898438 L 212.023438 24.898438 L 212.023438 118.800781 L 13.199219 118.800781 Z M 13.199219 24.898438 " fill-opacity="1" fill-rule="nonzero"/></g></g><g clip-path="url(#5392586db2)"><g clip-path="url(#351e664dd9)"><path fill="#000000" d="M 205.050781 43.5 L 295.574219 43.5 L 295.574219 107.699219 L 205.050781 107.699219 Z M 205.050781 43.5 " fill-opacity="1" fill-rule="nonzero"/></g></g><g clip-path="url(#0e98931e3a)"><g clip-path="url(#0942a1d662)"><path fill="#000000" d="M 124.726562 100.949219 L 169.351562 100.949219 L 169.351562 113.25 L 124.726562 113.25 Z M 124.726562 100.949219 " fill-opacity="1" fill-rule="nonzero"/></g></g><g clip-path="url(#fabdcc45ce)"><g clip-path="url(#d1a470b89f)"><path fill="#000000" d="M 30.75 60.226562 L 40.425781 60.226562 L 40.425781 69.375 L 30.75 69.375 Z M 30.75 60.226562 " fill-opacity="1" fill-rule="nonzero"/></g></g></svg>